<svg xmlns="http://www.w3.org/2000/svg" version="1.1" xmlns:xlink="http://www.w3.org/1999/xlink" xmlns:svgjs="http://svgjs.com/svgjs" width="512.000000pt" height="512.000000pt"><svg version="1.0" xmlns="http://www.w3.org/2000/svg" width="512.000000pt" height="512.000000pt" viewBox="0 0 512.000000 512.000000" preserveAspectRatio="xMidYMid meet">

<g transform="translate(0.000000,512.000000) scale(0.100000,-0.100000)" fill="#36a9e0" stroke="none">
<path d="M2450 4323 c-101 -5 -216 -22 -317 -49 -51 -13 -97 -24 -101 -24 -4
0 0 -5 8 -11 12 -8 11 -9 -6 -4 -22 6 -92 -13 -149 -40 -16 -8 -46 -21 -65
-30 -19 -8 -42 -19 -50 -24 -17 -11 -209 -128 -248 -152 -15 -9 -26 -24 -25
-33 0 -11 -4 -15 -13 -12 -16 6 -38 -11 -141 -110 -55 -54 -72 -76 -67 -90 4
-14 3 -15 -4 -6 -7 10 -16 4 -41 -25 -49 -59 -52 -63 -64 -86 -7 -12 -23 -37
-36 -55 -16 -22 -22 -42 -18 -60 4 -21 2 -24 -5 -11 -9 13 -17 3 -45 -50 -20
-36 -41 -77 -49 -91 -27 -51 -65 -147 -68 -171 -1 -13 -10 -40 -19 -59 -17
-33 -47 -178 -47 -226 0 -13 -3 -24 -7 -24 -12 0 -18 -135 -17 -360 1 -173 6
-228 28 -353 14 -81 32 -160 40 -175 7 -15 17 -43 21 -62 4 -19 13 -44 19 -55
7 -11 19 -38 26 -60 7 -22 18 -47 24 -55 6 -8 27 -46 46 -85 19 -38 41 -76 49
-84 7 -8 18 -28 23 -44 7 -18 15 -26 25 -23 8 3 11 1 8 -4 -6 -10 10 -46 29
-66 6 -6 24 -27 40 -47 16 -20 34 -34 39 -30 6 3 7 1 3 -6 -12 -18 196 -218
289 -278 44 -29 91 -60 104 -69 78 -55 303 -151 340 -145 8 1 10 -2 5 -10 -5
-8 -2 -11 8 -6 9 3 34 -1 56 -8 43 -15 56 -18 172 -42 152 -31 566 -21 695 17
17 5 84 25 150 44 169 49 271 98 446 217 53 37 88 67 85 74 -3 8 2 11 12 8 12
-3 44 23 97 79 106 110 165 178 165 190 0 5 8 17 19 26 10 10 40 53 68 97 126
204 217 440 249 645 22 142 27 527 9 635 -7 38 -18 102 -24 140 -10 59 -29
125 -59 205 -3 8 -6 17 -7 20 -19 70 -116 270 -128 263 -6 -3 -7 -1 -3 5 4 7
-8 36 -27 64 -18 29 -42 66 -52 83 -40 64 -174 210 -277 302 -50 45 -363 243
-384 243 -2 0 -27 11 -56 24 -69 31 -130 51 -145 48 -7 -2 -13 2 -13 8 0 5 -9
10 -20 10 -11 0 -52 9 -92 20 -116 31 -351 51 -508 43z m-380 -153 c0 -5 -5
-10 -11 -10 -5 0 -7 5 -4 10 3 6 8 10 11 10 2 0 4 -4 4 -10z m714 -270 c141
-24 199 -41 316 -98 77 -38 165 -93 212 -134 14 -13 46 -39 69 -58 91 -73 219
-226 219 -260 0 -6 5 -8 12 -4 7 4 8 3 4 -5 -4 -6 2 -23 13 -37 12 -15 21 -32
21 -38 0 -7 5 -17 12 -24 15 -15 52 -112 80 -207 19 -65 33 -143 58 -308 13
-85 13 -256 1 -328 -5 -30 -15 -97 -21 -149 -7 -52 -15 -99 -20 -105 -4 -5
-13 -32 -19 -60 -13 -54 -56 -171 -71 -195 -6 -8 -17 -32 -26 -52 -9 -21 -20
-38 -24 -38 -4 0 -15 -20 -26 -45 -10 -25 -21 -45 -25 -45 -4 0 -10 -8 -13
-18 -11 -34 -238 -251 -296 -282 -11 -6 -18 -15 -16 -19 3 -4 0 -8 -7 -8 -7 0
-43 -18 -82 -39 -82 -46 -162 -79 -225 -94 -25 -6 -52 -13 -60 -15 -81 -24
-126 -28 -310 -28 -117 0 -224 4 -250 11 -166 41 -203 53 -275 86 -105 49
-194 106 -280 180 -38 34 -71 64 -73 68 -2 4 -10 4 -19 1 -11 -4 -14 -2 -9 5
3 6 -6 24 -21 41 -46 48 -72 81 -90 112 -10 16 -21 29 -26 29 -4 0 -6 4 -3 9
3 5 -3 20 -13 33 -37 46 -101 184 -126 271 -94 328 -95 690 -1 1012 25 84 83
212 125 273 10 15 31 47 47 72 37 59 39 61 136 157 46 46 88 83 93 83 6 0 18
8 27 18 8 9 30 28 47 41 17 13 28 27 25 32 -3 5 2 6 11 3 8 -4 22 -1 30 6 42
35 206 105 281 120 33 6 71 16 85 21 67 26 366 31 503 9z m1157 -297 c13 -16
12 -17 -3 -4 -17 13 -22 21 -14 21 2 0 10 -8 17 -17z m94 -213 c3 -5 1 -10 -4
-10 -6 0 -11 5 -11 10 0 6 2 10 4 10 3 0 8 -4 11 -10z m79 -106 c5 -14 4 -15
-9 -4 -17 14 -19 20 -6 20 5 0 12 -7 15 -16z m-434 -8 c0 -3 -4 -8 -10 -11 -5
-3 -10 -1 -10 4 0 6 5 11 10 11 6 0 10 -2 10 -4z m-2390 -220 c0 -8 -4 -17 -9
-20 -10 -7 -23 19 -14 28 11 11 23 6 23 -8z m-5 -985 c3 -5 1 -12 -5 -16 -5
-3 -10 1 -10 9 0 18 6 21 15 7z m-105 -335 c0 -8 -4 -18 -10 -21 -5 -3 -10 3
-10 14 0 12 5 21 10 21 6 0 10 -6 10 -14z m2860 0 c0 -3 -4 -8 -10 -11 -5 -3
-10 -1 -10 4 0 6 5 11 10 11 6 0 10 -2 10 -4z m-337 -421 c-3 -9 -8 -14 -10
-11 -3 3 -2 9 2 15 9 16 15 13 8 -4z m-706 -441 c-3 -3 -12 -4 -19 -1 -8 3 -5
6 6 6 11 1 17 -2 13 -5z"></path>
<path d="M2400 3481 c-128 -23 -370 -127 -370 -159 0 -7 -4 -11 -10 -7 -16 10
-175 -141 -230 -220 -158 -227 -209 -549 -128 -810 28 -87 102 -231 118 -227
6 1 9 -2 5 -8 -10 -17 20 -57 114 -151 115 -115 221 -181 361 -224 30 -9 66
-22 79 -28 16 -8 87 -12 210 -12 169 0 193 3 261 24 169 55 294 129 408 242
67 66 144 173 172 239 6 14 17 38 25 55 19 42 45 134 45 161 0 12 4 24 10 26
14 5 23 213 12 288 -12 79 -43 192 -68 251 -25 58 -70 145 -83 161 -6 7 -34
41 -62 75 -42 51 -88 94 -185 172 -24 20 -55 31 -66 25 -7 -4 -8 -3 -4 4 11
19 -184 102 -239 102 -11 0 -26 5 -32 11 -14 14 -277 21 -343 10z m-43 -67
c-3 -3 -12 -4 -19 -1 -8 3 -5 6 6 6 11 1 17 -2 13 -5z m-347 -224 c0 -5 -5
-10 -11 -10 -5 0 -7 5 -4 10 3 6 8 10 11 10 2 0 4 -4 4 -10z m-60 -69 c0 -12
-20 -25 -27 -18 -7 7 6 27 18 27 5 0 9 -4 9 -9z m1270 -1195 c0 -2 -8 -10 -17
-17 -16 -13 -17 -12 -4 4 13 16 21 21 21 13z m-370 -136 c0 -5 -5 -10 -11 -10
-5 0 -7 5 -4 10 3 6 8 10 11 10 2 0 4 -4 4 -10z"></path>
</g>
</svg><style>@media (prefers-color-scheme: light) { :root { filter: none; } }
</style></svg>